<?xml version="1.0" encoding="utf-8"?><svg version="1.1" id="Layer_1" xmlns="http://www.w3.org/2000/svg" xmlns:xlink="http://www.w3.org/1999/xlink" x="0px" y="0px" viewBox="0 0 122.88 72.37" fill="rgb(55, 217, 55)" style="enable-background:new 0 0 122.88 72.37" xml:space="preserve"><style type="text/css">.st0{fill-rule:evenodd;clip-rule:evenodd;}</style><g><path class="st0" d="M12.69,0h97.49c3.49,0,6.67,1.43,8.96,3.73l0.13,0.14c2.23,2.29,3.6,5.41,3.6,8.83v32.43 c0,3.49-1.42,6.69-3.72,9.01c-2.29,2.3-5.45,3.73-8.97,3.73H23.4L3.58,71.96c-1.02,0.72-2.43,0.49-3.16-0.53 c-0.28-0.4-0.42-0.86-0.42-1.31H0V12.69c0-3.49,1.43-6.66,3.73-8.96l0.01-0.01C6.04,1.43,9.21,0,12.69,0L12.69,0z M43.58,14.36 v27.52h-7.17V30.33h-2.09v11.55h-7.17V14.36h7.17v9.85h2.09v-9.85H43.58L43.58,14.36z M61.81,30.99h-8.91v4.89 c0,1.02,0.08,1.68,0.22,1.98c0.15,0.3,0.44,0.44,0.86,0.44c0.53,0,0.88-0.2,1.06-0.59c0.18-0.39,0.27-1.15,0.27-2.28v-2.98h6.51 v1.67c0,1.4-0.09,2.47-0.26,3.22c-0.18,0.75-0.59,1.55-1.24,2.4c-0.64,0.85-1.47,1.49-2.46,1.92c-0.99,0.42-2.23,0.64-3.73,0.64 c-1.45,0-2.73-0.21-3.84-0.63c-1.11-0.42-1.97-0.99-2.59-1.72c-0.62-0.73-1.04-1.54-1.28-2.42c-0.24-0.88-0.36-2.15-0.36-3.83 v-6.58c0-1.97,0.27-3.53,0.8-4.67c0.53-1.14,1.4-2.01,2.62-2.62c1.22-0.61,2.61-0.91,4.19-0.91c1.93,0,3.51,0.37,4.77,1.1 c1.25,0.73,2.13,1.7,2.64,2.91c0.5,1.2,0.75,2.9,0.75,5.09V30.99L61.81,30.99z M54.96,27.34v-1.65c0-1.17-0.06-1.92-0.19-2.26 c-0.13-0.34-0.39-0.51-0.78-0.51c-0.49,0-0.79,0.14-0.9,0.44c-0.12,0.29-0.17,1.07-0.17,2.34v1.65H54.96L54.96,27.34z M71.11,14.36 v27.52h-7.06V14.36H71.11L71.11,14.36z M80.64,14.36v27.52h-7.06V14.36H80.64L80.64,14.36z M98.63,27.25v5.53 c0,2.03-0.1,3.51-0.31,4.46c-0.2,0.95-0.64,1.83-1.3,2.65c-0.67,0.82-1.53,1.43-2.57,1.82c-1.05,0.39-2.25,0.59-3.61,0.59 c-1.52,0-2.81-0.17-3.86-0.5c-1.06-0.34-1.87-0.84-2.45-1.51c-0.59-0.68-1-1.5-1.25-2.45c-0.25-0.96-0.37-2.39-0.37-4.31v-5.78 c0-2.1,0.23-3.73,0.68-4.92c0.45-1.18,1.27-2.12,2.45-2.84c1.18-0.71,2.68-1.07,4.52-1.07c1.54,0,2.86,0.23,3.97,0.69 c1.1,0.46,1.95,1.06,2.56,1.79c0.6,0.74,1.01,1.5,1.23,2.28C98.52,24.46,98.63,25.65,98.63,27.25L98.63,27.25z M91.78,25.55 c0-1.15-0.06-1.88-0.19-2.18c-0.13-0.3-0.39-0.45-0.81-0.45c-0.41,0-0.68,0.15-0.82,0.45c-0.13,0.3-0.2,1.03-0.2,2.18v10.18 c0,1.07,0.07,1.76,0.2,2.08c0.14,0.32,0.41,0.49,0.81,0.49c0.41,0,0.68-0.15,0.81-0.44c0.13-0.3,0.2-0.93,0.2-1.9V25.55 L91.78,25.55z"/></g></svg>