<svg xmlns="http://www.w3.org/2000/svg" shape-rendering="geometricPrecision" text-rendering="geometricPrecision" image-rendering="optimizeQuality" fill-rule="evenodd" clip-rule="evenodd" viewBox="0 0 512 159.995" fill="#b2b7c0"><path fill-rule="nonzero" d="M197.358 0h-24.479v25.626h24.479V0zm313.6 130.397V69.188c0-35.78-22.394-51.742-72.632-51.742-42.212 0-67.406 18.98-67.406 50.771h24.682c0-19.03 13.178-27.504 42.724-27.504 35.694 0 48.359 7.913 48.359 30.223-8.722 1.171-17 2.211-25.091 3.217-60.666 7.585-97.279 12.169-97.279 47.274 0 13.769 5.273 23.531 16.129 29.83 9.714 5.638 27.022 8.738 48.733 8.738 29.242 0 53.583-7.108 60.563-17.676-.63 9.613 0 15.582 0 15.632H512c-.034-.099-1.042-11.048-1.042-27.554zm-24.273-28.823c0 14.922-5.291 25.162-16.182 31.28-9.73 5.474-24.358 8.03-46.002 8.03-13.263 0-35.504-2.556-35.504-19.655 0-8.343 5.803-13.438 20.022-17.56 15.329-4.453 41.087-7.9 77.684-11.989v9.894h-.018zm-96.459 19.359h-.612V121.509h.612V120.933zM87.874 0H0v157.951h24.478v-56.195h63.396c59.215 0 65.616-35.583 65.616-50.87C153.472 35.585 147.07 0 87.874 0zm-4.421 78.309H24.478v-54.86H83.47c30.658 0 43.732 8.195 43.732 27.421-.016 19.227-13.092 27.439-43.749 27.439zM361.14 18.403h-33.9l-84.477 65.512V0h-24.478v157.951h24.478V91.268l85.261 66.683h35.505L272.464 85.86l88.676-67.457zM197.358 36.706h-24.479v121.245h24.479V36.706z"/></svg>